<svg width="16" height="20" fill="none" xmlns="http://www.w3.org/2000/svg"><path fill-rule="evenodd" clip-rule="evenodd" d="M0 1a1 1 0 011-1h14a1 1 0 011 1v17.5a1.5 1.5 0 00-1.5 1.5h-1a1.5 1.5 0 00-3 0h-1a1.5 1.5 0 00-3 0h-1a1.5 1.5 0 00-3 0h-1A1.5 1.5 0 000 18.5V1zm9.416 10.788a4.236 4.236 0 01-3.086.595c-1.803-.336-3.24-1.85-3.47-3.672a4.318 4.318 0 014.994-4.83c1.802.287 3.25 1.763 3.547 3.555a4.247 4.247 0 01-.614 2.991l2.109 2.1a.97.97 0 01-1.37 1.37l-2.11-2.109zm-4.71-3.73a2.354 2.354 0 114.707.002 2.354 2.354 0 01-4.707-.001z" fill="#fff"/></svg>